<?xml version="1.0" encoding="UTF-8" standalone="no"?>
<!-- Created with Inkscape (http://www.inkscape.org/) -->

<svg
   xmlns:dc="http://purl.org/dc/elements/1.1/"
   xmlns:cc="http://creativecommons.org/ns#"
   xmlns:rdf="http://www.w3.org/1999/02/22-rdf-syntax-ns#"
   xmlns:svg="http://www.w3.org/2000/svg"
   xmlns="http://www.w3.org/2000/svg"
   xmlns:sodipodi="http://sodipodi.sourceforge.net/DTD/sodipodi-0.dtd"
   xmlns:inkscape="http://www.inkscape.org/namespaces/inkscape"
   version="1.1"
   width="216.0145"
   height="262.45386"
   id="svg3909"
   inkscape:version="0.47pre1"
   sodipodi:docname="herb1.svg"
   inkscape:output_extension="org.inkscape.output.svg.inkscape">
  <metadata
     id="metadata2842">
    <rdf:RDF>
      <cc:Work
         rdf:about="">
        <dc:format>image/svg+xml</dc:format>
        <dc:type
           rdf:resource="http://purl.org/dc/dcmitype/StillImage" />
        <dc:title></dc:title>
        <cc:license
           rdf:resource="http://creativecommons.org/licenses/publicdomain/" />
      </cc:Work>
      <cc:License
         rdf:about="http://creativecommons.org/licenses/publicdomain/">
        <cc:permits
           rdf:resource="http://creativecommons.org/ns#Reproduction" />
        <cc:permits
           rdf:resource="http://creativecommons.org/ns#Distribution" />
        <cc:permits
           rdf:resource="http://creativecommons.org/ns#DerivativeWorks" />
      </cc:License>
    </rdf:RDF>
  </metadata>
  <sodipodi:namedview
     pagecolor="#ffffff"
     bordercolor="#666666"
     borderopacity="1"
     objecttolerance="10"
     gridtolerance="10"
     guidetolerance="10"
     inkscape:pageopacity="0"
     inkscape:pageshadow="2"
     inkscape:window-width="1680"
     inkscape:window-height="994"
     id="namedview2840"
     showgrid="false"
     inkscape:zoom="2"
     inkscape:cx="64.028992"
     inkscape:cy="131.22693"
     inkscape:window-x="-4"
     inkscape:window-y="-4"
     inkscape:window-maximized="1"
     inkscape:current-layer="svg3909" />
  <defs
     id="defs3911">
    <inkscape:perspective
       sodipodi:type="inkscape:persp3d"
       inkscape:vp_x="0 : 131.22693 : 1"
       inkscape:vp_y="0 : 1000 : 0"
       inkscape:vp_z="216.0145 : 131.22693 : 1"
       inkscape:persp3d-origin="108.00725 : 87.484619 : 1"
       id="perspective2844" />
  </defs>
  <g
     transform="translate(-856.27846,-401.13525)"
     id="layer1">
    <g
       transform="translate(846.53596,391.39511)"
       id="g2877">
      <g
         id="g2828">
        <path
           d="m 208.571,102.542 c -3.512,-10.9719 -7.144,-22.3184 -9.991,-33.3222 -1.511,-5.8415 -1.413,-9.5976 0.307,-11.82 1.557,-2.0103 4.566,-2.9472 9.474,-2.9472 0.278,0 0.542,-0.1285 0.712,-0.3476 0.171,-0.2192 0.232,-0.5063 0.164,-0.7759 L 198.583,10.922 c -0.061,-0.239 -0.216,-0.4426 -0.43,-0.5642 -0.215,-0.1222 -0.469,-0.1499 -0.706,-0.0799 -28.753,8.5869 -53.197,12.2435 -79.255,11.8588 -0.031,-0.0074 -0.239,-0.0048 -0.239,-0.0048 0,0 -0.21,0.002 -0.215,0.002 -0.001,0 -0.4,-0.0046 -0.4,-0.0046 -26.0885,0.3921 -50.5313,-3.2645 -79.2853,-11.8514 -0.2356,-0.07 -0.491,-0.0423 -0.7048,0.0799 -0.2154,0.1216 -0.3697,0.3252 -0.4303,0.5642 l -10.654,42.4071 c -0.0689,0.2696 -0.0085,0.5567 0.1625,0.7759 0.1721,0.2191 0.4343,0.3476 0.7121,0.3476 4.9083,0 7.919,0.9369 9.4749,2.9472 1.7214,2.2224 1.8184,5.9785 0.3065,11.82 -2.8481,11.0038 -6.4783,22.3503 -9.988,33.3222 -8.2051,25.644 -16.6891,52.161 -16.6891,78.185 0,0.027 8e-4,0.051 0.004,0.075 1.4532,17.323 9.9514,31.495 25.9796,43.326 13.7532,10.153 30.7306,16.921 45.7113,22.893 19.4806,7.767 34.8676,13.901 34.8676,23.794 0,0.491 0.39,0.868 0.88,0.879 0.023,0 0.043,-0.006 0.065,-0.007 0.023,10e-4 0.044,0.007 0.065,0.007 0.489,-0.011 0.882,-0.388 0.882,-0.879 0,-9.893 15.386,-16.027 34.867,-23.794 14.979,-5.972 31.955,-12.74 45.71,-22.893 16.028,-11.831 24.526,-26.003 25.981,-43.326 0.001,-0.024 0.002,-0.048 0.002,-0.075 0,-26.024 -8.483,-52.541 -16.686,-78.185 z"
           id="path2858"
           style="fill:#285398;fill-opacity:1;stroke:#000000;stroke-width:1;stroke-miterlimit:4;stroke-dasharray:none" />
        <path
           d="m 117.707,45.6972 12.129,36.1491 42.382,-6.0227 -30.289,30.1114 30.289,30.126 -42.382,-6.007 -12.129,36.123 -12.095,-36.123 -42.4058,6.007 30.2756,-30.126 -30.2756,-30.1114 42.4058,6.0227 12.095,-36.1491 z"
           id="path2860"
           style="fill:#ffd700;fill-opacity:1;stroke:#000000;stroke-width:0.2;stroke-miterlimit:4;stroke-dasharray:none" />
        <path
           d="m 187.355,129.407 c -5.213,38.672 -34.199,68.269 -69.177,68.269 -34.9776,0 -63.9632,-29.597 -69.1768,-68.269 -2.5365,7.538 -3.9146,15.618 -3.9146,24.029 0,41.005 32.7247,74.246 73.0914,74.246 40.369,0 73.093,-33.241 73.093,-74.246 0,-8.411 -1.379,-16.491 -3.916,-24.029 z"
           id="path2862"
           style="fill:#ffd700;fill-opacity:1;stroke:#000000;stroke-width:0.2;stroke-miterlimit:4;stroke-dasharray:none" />
        <path
           d="M 193.375,17.46875 C 144.06935,31.85394 90.466212,31.758413 41.15625,17.375 c -2.480843,10.424889 -5.598413,21.272663 -7.6875,31.4375 8.881216,2.059166 12.856107,12.818962 8.9375,20.71875 -8.251119,36.46195 -25.944038,71.17677 -26.28125,109.125 -0.09888,21.29017 16.509193,37.81993 34.060443,47.51907 19.911887,11.79918 43.409225,16.39819 62.752057,29.01218 2.46202,1.4328 4.45957,5.57351 6.5625,1.90625 14.70176,-11.50372 33.60016,-15.25325 50.13256,-23.46864 20.30308,-8.94691 42.35405,-22.30584 47.89869,-45.25011 4.21374,-21.12461 -3.20185,-42.35408 -8.19122,-62.67729 C 203.08007,103.95349 193.85159,82.78875 191.125,60.25 c 0.62288,-5.605836 5.33624,-10.138584 10.59375,-11.59375 -3.2306,-10.238531 -5.13845,-20.922477 -7.9375,-31.3125 l -0.40625,0.125 z"
           id="path2858-4"
           style="fill:none;stroke:#ffd700;stroke-width:1.79999995;stroke-miterlimit:4;stroke-opacity:1;stroke-dasharray:none" />
      </g>
    </g>
  </g>
</svg>
