<?xml version="1.0" encoding="UTF-8" standalone="no"?>
<!-- Created with Inkscape (http://www.inkscape.org/) -->

<svg
   xmlns:dc="http://purl.org/dc/elements/1.1/"
   xmlns:cc="http://creativecommons.org/ns#"
   xmlns:rdf="http://www.w3.org/1999/02/22-rdf-syntax-ns#"
   xmlns:svg="http://www.w3.org/2000/svg"
   xmlns="http://www.w3.org/2000/svg"
   version="1.1"
   width="741.67645"
   height="801.28442"
   id="svg2">
  <defs
     id="defs4" />
  <metadata
     id="metadata7">
    <rdf:RDF>
      <cc:Work
         rdf:about="">
        <dc:format>image/svg+xml</dc:format>
        <dc:type
           rdf:resource="http://purl.org/dc/dcmitype/StillImage" />
        <dc:title></dc:title>
      </cc:Work>
    </rdf:RDF>
  </metadata>
  <g
     transform="translate(-1.4421997,-15.615237)"
     id="layer1">
    <g
       transform="translate(985.04578,73.878434)"
       id="g3923">
      <g
         id="g3881">
        <g
           transform="translate(-2125.0098,-133.97882)"
           id="layer1-7"
           style="fill:#0a8ad6;fill-opacity:1;stroke:#000000;stroke-width:5;stroke-miterlimit:4;stroke-opacity:1;stroke-dasharray:none">
          <path
             d="m 1143.9028,78.221044 0.7188,467.718766 c -2.5098,168.5283 153.2619,328.64144 367.375,328.5625 199.6825,-0.0736 369.0186,-160.65305 367.25,-328.5625 2.0582,-170.5465 1.2046,-295.6304 0.875,-467.718766 -124.4187,0 -632.5617,0 -736.2188,0 z"
             id="path2972"
             style="fill:#0091c9;fill-opacity:1;stroke:#000000;stroke-width:5;stroke-linecap:round;stroke-linejoin:round;stroke-miterlimit:4;stroke-opacity:1;stroke-dasharray:none;stroke-dashoffset:0" />
        </g>
        <g
           transform="translate(-818.2907,-0.19265228)"
           id="g3846">
          <path
             d="m 137.05851,333.28762 24.2679,24.68156 -41.91729,12.6855 z"
             id="path3833"
             style="fill:#f9d616;fill-opacity:1;fill-rule:evenodd;stroke:#000000;stroke-width:4;stroke-linecap:butt;stroke-linejoin:round;stroke-miterlimit:4;stroke-opacity:1;stroke-dasharray:none" />
          <path
             d="m 111.34375,356.9375 c -10.9708,0 -19.875,8.9042 -19.875,19.875 0,10.9708 8.9042,19.84375 19.875,19.84375 10.9708,0 19.875,-8.87295 19.875,-19.84375 0,-10.9708 -8.9042,-19.875 -19.875,-19.875 z m 0,12.5 c 4.07496,0 7.375,3.30004 7.375,7.375 0,4.07496 -3.30004,7.375 -7.375,7.375 -4.07496,0 -7.375,-3.30004 -7.375,-7.375 0,-4.07496 3.30004,-7.375 7.375,-7.375 z"
             id="path3829"
             style="fill:#f9d616;fill-opacity:1;fill-rule:evenodd;stroke:#000000;stroke-width:4;stroke-linecap:butt;stroke-linejoin:bevel;stroke-miterlimit:4;stroke-opacity:1;stroke-dasharray:none" />
          <path
             d="m 364.09643,335.70997 21.7236,31.00137 -38.69515,-9.95664 z"
             id="path3840"
             style="fill:#f9d616;fill-opacity:1;fill-rule:evenodd;stroke:#000000;stroke-width:4;stroke-linecap:butt;stroke-linejoin:round;stroke-miterlimit:4;stroke-opacity:1;stroke-dasharray:none" />
          <path
             d="m 394.94675,354.44834 c -10.9708,0 -19.875,8.9042 -19.875,19.875 0,10.9708 8.9042,19.84375 19.875,19.84375 10.9708,0 19.875,-8.87295 19.875,-19.84375 0,-10.9708 -8.9042,-19.875 -19.875,-19.875 z m 0,12.5 c 4.07496,0 7.375,3.30004 7.375,7.375 0,4.07496 -3.30004,7.375 -7.375,7.375 -4.07496,0 -7.375,-3.30004 -7.375,-7.375 0,-4.07496 3.30004,-7.375 7.375,-7.375 z"
             id="path3838"
             style="fill:#f9d616;fill-opacity:1;fill-rule:evenodd;stroke:#000000;stroke-width:4;stroke-linecap:butt;stroke-linejoin:bevel;stroke-miterlimit:4;stroke-opacity:1;stroke-dasharray:none" />
          <path
             d="M 364.36792,335.5317 C 260.20767,262.10386 200.15151,199.54976 163.93249,137.16369 135.64403,88.437743 142.58113,17.135174 224.37769,-4.8079353 145.41148,-13.962194 89.928193,80.754103 135.47334,158.89303 c 46.23343,79.31978 139.56709,148.39489 211.53684,198.25111 z"
             id="path3842"
             style="fill:#f9d616;fill-opacity:1;fill-rule:evenodd;stroke:#000000;stroke-width:4;stroke-linecap:butt;stroke-linejoin:round;stroke-miterlimit:4;stroke-opacity:1;stroke-dasharray:none" />
          <path
             d="M 137.22292,332.98813 C 200.40383,282.60381 278.55936,209.4134 298.97058,117.76508 309.14198,53.656947 266.99539,2.8045284 222.12638,-5.1073339 286.60012,-5.3415378 329.64617,33.089503 323.80783,114.18215 c -5.43765,84.7752 -85.90621,173.96666 -161.98175,243.33396 z"
             id="path3844"
             style="fill:#f9d616;fill-opacity:1;fill-rule:evenodd;stroke:#000000;stroke-width:4;stroke-linecap:butt;stroke-linejoin:round;stroke-miterlimit:4;stroke-opacity:1;stroke-dasharray:none" />
        </g>
        <g
           transform="translate(-818.06267,0)"
           id="g3873">
          <g
             id="g3866">
            <path
               d="M 40.026461,331.88589 C 180.93248,505.70817 384.57167,533.55868 491.8403,237.88435 c -24.39015,-27.44892 3.13006,-46.51938 26.07785,-26.07785 17.13635,16.70387 13.45511,33.10859 0,35.17477 C 425.097,652.49167 82.91099,621.35946 -103.09846,453.78465 z"
               id="path3860"
               style="fill:#f9d616;fill-opacity:1;stroke:#000000;stroke-width:4;stroke-linecap:butt;stroke-linejoin:round;stroke-miterlimit:4;stroke-opacity:1;stroke-dasharray:none" />
            <path
               d="m 81.484394,404.32846 a 95.206802,57.963272 0 1 1 -190.413604,0 95.206802,57.963272 0 1 1 190.413604,0 z"
               transform="matrix(0.79558021,-0.60584827,0.60584827,0.79558021,-269.61067,58.09619)"
               id="path3856"
               style="fill:#f9d616;fill-opacity:1;fill-rule:evenodd;stroke:#000000;stroke-width:4;stroke-linecap:butt;stroke-linejoin:round;stroke-miterlimit:4;stroke-opacity:1;stroke-dasharray:none" />
            <path
               d="m -75.163326,460.97296 c -0.929933,-40.97197 28.865857,-71.77519 57.95577,-88.23739 l 2.08787,3.18155 c -28.828379,24.40123 -42.125123,53.40817 -43.079695,84.27289 -5.944191,1.27438 -11.815456,2.29352 -16.963945,0.78295 z"
               id="path3858"
               style="fill:#000000;fill-opacity:1;stroke:#000000;stroke-width:0.69999999;stroke-linecap:butt;stroke-linejoin:round;stroke-miterlimit:4;stroke-opacity:1;stroke-dasharray:none" />
            <path
               d="M 90.949233,386.63495 C 105.58467,446.9615 50.065688,519.52843 -9.517943,518.8286 l 31.726477,14.80569 C 69.651842,527.02672 126.16093,468.03512 112.62899,404.61328 z"
               id="path3862"
               style="fill:#000000;stroke:#000000;stroke-width:0.80000001;stroke-linecap:butt;stroke-linejoin:round;stroke-miterlimit:4;stroke-opacity:1;stroke-dasharray:none" />
            <path
               d="m 402.34579,395.57566 15.76213,-17.84029 c 18.94964,4.24594 30.4451,16.18652 36.90063,33.3296 l -14.5817,22.02135 c -5.34409,-19.7523 -17.01012,-33.48521 -38.08106,-37.51066 z"
               id="path3864"
               style="fill:#000000;fill-opacity:1;stroke:#000000;stroke-width:0.80000001;stroke-linecap:butt;stroke-linejoin:round;stroke-miterlimit:4;stroke-opacity:1;stroke-dasharray:none" />
          </g>
        </g>
      </g>
    </g>
  </g>
</svg>
