<?xml version="1.0" encoding="UTF-8" standalone="no"?>
<!-- Creator: CorelDRAW -->
<svg
   xmlns:dc="http://purl.org/dc/elements/1.1/"
   xmlns:cc="http://web.resource.org/cc/"
   xmlns:rdf="http://www.w3.org/1999/02/22-rdf-syntax-ns#"
   xmlns:svg="http://www.w3.org/2000/svg"
   xmlns="http://www.w3.org/2000/svg"
   xmlns:sodipodi="http://sodipodi.sourceforge.net/DTD/sodipodi-0.dtd"
   xmlns:inkscape="http://www.inkscape.org/namespaces/inkscape"
   xml:space="preserve"
   width="744"
   height="829.8186"
   style="shape-rendering:geometricPrecision; text-rendering:geometricPrecision; image-rendering:optimizeQuality; fill-rule:evenodd; clip-rule:evenodd"
   viewBox="0 0 210 297"
   id="svg2"
   sodipodi:version="0.32"
   inkscape:version="0.45.1"
   sodipodi:docname="POL Zabrze COA.svg"
   inkscape:output_extension="org.inkscape.output.svg.inkscape"
   sodipodi:docbase="C:\Users\Mistrz\Desktop"
   version="1.0"><metadata
   id="metadata21"><rdf:RDF><cc:Work
       rdf:about=""><dc:format>image/svg+xml</dc:format><dc:type
         rdf:resource="http://purl.org/dc/dcmitype/StillImage" /></cc:Work></rdf:RDF></metadata><sodipodi:namedview
   inkscape:window-height="480"
   inkscape:window-width="640"
   inkscape:pageshadow="2"
   inkscape:pageopacity="0.0"
   guidetolerance="10.0"
   gridtolerance="10.0"
   objecttolerance="10.0"
   borderopacity="1.0"
   bordercolor="#666666"
   pagecolor="#ffffff"
   id="base" />
 <defs
   id="defs4">
  <style
   type="text/css"
   id="style6">
   
    .fil0 {fill:#0A0B0C}
    .fil1 {fill:#F8C300}
    .fil2 {fill:#005197}
    .fil3 {fill:#DA251D}
   
  </style>
 </defs>
 <g
   id="Warstwa_x0020_1"
   transform="matrix(1.2680224,0,0,1.2680224,-28.142351,-39.801966)">
  <metadata
   id="CorelCorpID_0Corel-Layer" />
  <g
   id="_79162704">
   <path
   id="_79163160"
   class="fil0"
   d="M 210,161.354 C 209.9999,218.7775 162.8321,265.612 105,265.612 C 47.2551,265.612 0,218.6914 0,161.354 L 0,31.389 L 210,31.389 L 210,161.354 L 210,161.354 z "
   style="fill:#0a0b0c" />
   <path
   id="_79163088"
   class="fil1"
   d="M 206.449,160.944 C 206.4489,216.5368 160.8761,261.878 105,261.878 C 49.2078,261.878 3.551,216.4532 3.551,160.944 L 3.551,35.123 L 206.45,35.123 L 206.45,160.945 L 206.449,160.944 z "
   style="fill:#f8c300" />
   <g
   id="g13">
    <path
   id="_79163016"
   class="fil0"
   d="M 109.809,47.3197 C 115.2516,47.7468 120.5181,48.8185 125.5331,50.4551 L 122.6839,57.3337 C 126.1102,58.4149 129.4058,59.7938 132.5432,61.4369 L 135.3934,54.5562 C 140.1834,57.0069 144.6483,60.0078 148.705,63.4736 L 143.4424,68.7362 C 146.1759,71.0263 148.7052,73.5519 151.001,76.2802 L 156.2633,71.018 C 159.739,75.0708 162.7486,79.5337 165.2091,84.3218 L 158.3267,87.1726 C 159.9762,90.3067 161.3598,93.6008 162.4481,97.0246 L 169.329,94.1744 C 170.9772,99.1952 172.0568,104.4694 172.4909,109.921 L 165.0364,109.921 C 165.197,111.7149 165.2835,113.5299 165.2835,115.3644 C 165.2835,117.1283 165.2033,118.8735 165.0549,120.6001 L 172.5062,120.6001 C 172.0878,126.0588 171.0214,131.341 169.3858,136.3703 L 162.5075,133.5212 C 161.4308,136.949 160.0556,140.2462 158.4166,143.3857 L 165.2929,146.234 C 162.8395,151.0428 159.8321,155.5249 156.3565,159.5964 L 151.096,154.3359 C 148.807,157.0702 146.2822,159.6003 143.5547,161.8972 L 148.8147,167.1572 C 144.749,170.647 140.2702,173.6679 135.4639,176.1351 L 132.6137,169.2542 C 129.4788,170.9019 126.1839,172.2838 122.7596,173.3701 L 125.6094,180.2502 C 120.5721,181.9014 115.2795,182.9802 109.809,183.4089 L 109.809,175.9555 C 108.0434,176.111 106.2577,176.1949 104.453,176.1949 C 102.6593,176.1949 100.8848,176.1118 99.1298,175.9584 L 99.1298,183.4108 C 93.6585,182.9844 88.3649,181.9072 83.3259,180.2583 L 86.1751,173.3795 C 82.7497,172.2957 79.4552,170.9141 76.319,169.2684 L 73.4674,176.1528 C 68.6565,173.6873 64.1749,170.6656 60.1057,167.1755 L 65.369,161.9121 C 62.6403,159.6168 60.1154,157.0866 57.8249,154.3536 L 52.5606,159.618 C 49.0803,155.5449 46.0705,151.0591 43.6142,146.247 L 50.4953,143.3968 C 48.8552,140.258 47.4804,136.9604 46.4024,133.5332 L 39.5203,136.3839 C 37.8829,131.3507 36.8169,126.0636 36.399,120.6001 L 43.8511,120.6001 C 43.7027,118.8736 43.6224,117.1283 43.6224,115.3644 C 43.6224,113.5299 43.7092,111.715 43.8696,109.921 L 36.4152,109.921 C 36.8502,104.4655 37.9325,99.1875 39.5831,94.1633 L 46.4618,97.0126 C 47.55,93.5887 48.9355,90.2956 50.5851,87.1614 L 43.6994,84.3093 C 46.1621,79.5178 49.1759,75.0525 52.6553,70.9978 L 57.92,76.2625 C 60.2164,73.5346 62.7475,71.0107 65.4813,68.7212 L 60.2163,63.4562 C 64.276,59.9899 68.7452,56.9896 73.5385,54.5396 L 76.3895,61.4227 C 79.5274,59.7808 82.8243,58.4043 86.2508,57.3243 L 83.4,50.4418 C 88.4164,48.8074 93.6852,47.7403 99.1298,47.3168 L 99.1298,54.7701 C 100.8848,54.6167 102.6593,54.5338 104.453,54.5338 C 106.2577,54.5338 108.0434,54.6175 109.809,54.773 L 109.809,47.3197 L 109.809,47.3197 z M 112.3204,100.0247 C 115.5575,101.601 118.2657,104.1043 120.0974,107.1848 L 145.9788,102.0236 C 141.6526,88.6191 130.995,78.0143 117.5575,73.7626 L 112.3204,100.0247 L 112.3204,100.0247 z M 121.2751,123.4813 C 118.5224,130.13 111.9622,134.8287 104.3386,134.8287 C 96.7303,134.8287 90.1803,130.1491 87.4183,123.5212 L 62.8368,128.4232 C 68.4088,146.1026 84.9742,158.984 104.453,158.984 C 123.9309,158.984 140.4958,146.1038 146.0685,128.4256 L 121.2751,123.4813 L 121.2751,123.4813 z M 88.6027,107.1463 C 90.466,104.0299 93.2281,101.5081 96.5265,99.9437 L 91.3082,73.7758 C 77.8891,78.0362 67.2479,88.634 62.9265,102.026 L 88.6027,107.1463 L 88.6027,107.1463 z "
   style="fill:#0a0b0c" />
    <path
   id="_79162944"
   class="fil2"
   d="M 112.193,57.3884 L 112.193,50.0044 C 115.6516,50.4128 119.0283,51.0935 122.3038,52.02 L 119.4791,58.8395 C 124.5326,60.1873 129.3204,62.1961 133.7434,64.7694 L 136.5665,57.9538 C 139.5712,59.643 142.4296,61.5623 145.1211,63.6853 L 139.9067,68.8997 C 144.012,72.0414 147.6907,75.7134 150.8413,79.8115 L 156.057,74.5958 C 158.1884,77.2853 160.1139,80.1442 161.8108,83.1485 L 154.9886,85.9744 C 157.5715,90.3921 159.589,95.1766 160.9475,100.2267 L 167.7709,97.4003 C 168.7063,100.6831 169.3918,104.069 169.8063,107.5367 L 162.4165,107.5367 C 162.7627,110.0981 162.9436,112.7107 162.9436,115.3643 C 162.9436,117.9463 162.7727,120.4893 162.4456,122.9845 L 169.8304,122.9845 C 169.4267,126.4591 168.75,129.8523 167.8234,133.1426 L 160.998,130.3154 C 159.657,135.3709 157.6542,140.1614 155.0871,144.5876 L 161.9058,147.4119 C 160.2105,150.4347 158.2839,153.3116 156.1494,156.0176 L 150.9313,150.7995 C 147.7913,154.9062 144.1205,158.5862 140.0238,161.7385 L 145.2385,166.9532 C 142.5343,169.0966 139.6591,171.0329 136.6368,172.7369 L 133.8123,165.9179 C 129.3934,168.4983 124.6074,170.5128 119.5565,171.8682 L 122.3811,178.6875 C 119.0821,179.626 115.6787,180.3125 112.193,180.724 L 112.193,173.3404 C 109.6597,173.6789 107.0762,173.8553 104.4527,173.8553 C 101.8405,173.8553 99.2684,173.6797 96.7452,173.345 L 96.7452,180.7278 C 93.2583,180.3179 89.8539,179.6331 86.5535,178.6959 L 89.3784,171.8762 C 84.3262,170.5242 79.5402,168.5106 75.1192,165.9335 L 72.2951,172.7518 C 69.2698,171.048 66.3918,169.1116 63.6852,166.9676 L 68.9001,161.7527 C 64.8015,158.6026 61.1305,154.9228 57.9883,150.8181 L 52.7704,156.0359 C 50.6328,153.3277 48.7034,150.4484 47.0057,147.4228 L 53.8248,144.5984 C 51.2558,140.1734 49.2532,135.3824 47.9107,130.3275 L 41.0855,133.1546 C 40.1569,129.8606 39.4794,126.4632 39.0749,122.9845 L 46.4598,122.9845 C 46.1319,120.4897 45.9618,117.9463 45.9618,115.3643 C 45.9618,112.7108 46.1437,110.0983 46.4889,107.5367 L 39.0988,107.5367 C 39.5136,104.065 40.2007,100.6748 41.1378,97.3882 L 47.9612,100.2146 C 49.32,95.1645 51.3401,90.3812 53.9232,85.9635 L 47.1008,83.1376 C 48.8,80.1306 50.7283,77.2692 52.8629,74.5776 L 58.0783,79.793 C 61.2299,75.6958 64.9111,72.0261 69.0172,68.8855 L 63.8028,63.671 C 66.4967,61.5476 69.358,59.6278 72.3655,57.939 L 75.1883,64.7539 C 79.612,62.1822 84.4017,60.1771 89.4557,58.8316 L 86.6308,52.0117 C 89.9076,51.0865 93.2854,50.4072 96.7452,50.0006 L 96.7452,57.3838 C 99.2681,57.0482 101.8405,56.8735 104.4527,56.8735 C 107.0762,56.8735 109.6593,57.0508 112.193,57.3884 L 112.193,57.3884 z M 109.6014,101.4659 C 113.6897,102.9034 117.0235,105.9651 118.8233,109.8701 L 148.907,103.871 C 144.7151,87.7089 131.9026,74.9568 115.7067,70.8501 L 109.6014,101.4659 L 109.6014,101.4659 z M 119.7047,120.7369 C 117.8439,127.4742 111.6537,132.447 104.3383,132.447 C 97.0377,132.447 90.8576,127.4943 88.9831,120.7778 L 59.9274,126.5721 C 64.9517,146.4742 83.0276,161.2799 104.4527,161.2799 C 125.877,161.2799 143.9523,146.4754 148.9775,126.5744 L 119.7047,120.7369 L 119.7047,120.7369 z M 89.8717,109.8307 C 91.7012,105.8893 95.0957,102.8115 99.2488,101.405 L 93.1578,70.8601 C 76.9805,74.9781 64.1853,87.7233 59.9978,103.8734 L 89.8717,109.8307 z "
   style="fill:#005197" />
    <circle
   id="_79162872"
   class="fil0"
   cx="104.458"
   cy="116.867"
   r="5.2597599"
   sodipodi:cx="104.458"
   sodipodi:cy="116.867"
   sodipodi:rx="5.2597599"
   sodipodi:ry="5.2597599"
   style="fill:#0a0b0c" />
   </g>
   <path
   id="_79162776"
   class="fil0"
   d="M 32.9305,231.796 L 32.9305,167.0952 C 37.1989,165.5086 41.6539,164.3104 46.2518,163.5455 L 46.2518,173.8704 C 49.1254,173.3927 52.0549,173.0842 55.0295,172.9554 L 55.0295,162.6298 C 56.0855,162.5839 57.1468,162.5603 58.2137,162.5603 C 61.2617,162.5603 64.2657,162.7534 67.2169,163.1206 L 67.2169,141.3844 C 71.4576,139.6148 75.845,138.1299 80.3546,136.953 L 80.3546,151.6864 C 82.9737,151.0034 85.6342,150.4247 88.3311,149.9547 L 88.3311,135.2195 C 93.9018,134.2476 99.6283,133.7399 105.47,133.7399 C 110.7265,133.7399 115.8903,134.1512 120.9307,134.9418 L 120.9307,149.677 C 123.4354,150.0692 125.9098,150.5552 128.35,151.1311 L 128.35,136.3976 C 132.8345,137.457 137.2038,138.8197 141.4355,140.4633 L 141.4355,163.115 C 144.3734,162.7512 147.3634,162.5603 150.3972,162.5603 C 151.4641,162.5603 152.5255,162.5839 153.5814,162.6298 L 153.5814,172.9554 C 156.556,173.0842 159.4855,173.3927 162.3591,173.8704 L 162.3591,163.5455 C 166.957,164.3104 171.412,165.5086 175.6804,167.0952 L 175.6804,233.2275 C 157.3874,250.9394 132.4386,261.8777 105,261.8777 C 76.8875,261.8777 51.3521,250.3411 32.9305,231.796 L 32.9305,231.796 z "
   style="fill:#0a0b0c" />
   <path
   id="_79162632"
   class="fil3"
   d="M 66.1168,166.151 L 66.1168,192.3604 C 63.5198,192.0782 60.8838,191.9292 58.2137,191.9292 C 50.2663,191.9292 42.6112,193.2163 35.4402,195.5854 L 35.4402,169.5296 C 38.0776,168.6143 40.7862,167.8526 43.5545,167.2562 L 43.5545,177.5796 C 48.1307,176.5946 52.8713,176.061 57.7269,176.0275 L 57.7269,165.7014 C 57.8891,165.7003 58.0512,165.6994 58.2137,165.6994 C 60.8857,165.6994 63.5216,165.8561 66.1168,166.151 z M 138.8753,142.5801 L 138.8753,183.9095 C 128.4171,180.1972 117.1739,178.169 105.47,178.169 C 92.8981,178.169 80.8568,180.5083 69.7506,184.7632 L 69.7506,143.4693 C 72.2883,142.4577 74.8785,141.5508 77.5153,140.7532 L 77.5153,155.154 C 81.9433,153.8049 86.5036,152.7669 91.1704,152.0663 L 91.1704,137.6876 C 95.8386,136.9917 100.6132,136.6305 105.47,136.6305 C 109.7461,136.6305 113.9591,136.9106 118.0914,137.4522 L 118.0914,151.8296 C 122.5588,152.4195 126.932,153.3177 131.1893,154.5022 L 131.1893,140.1053 C 133.7964,140.8254 136.36,141.6518 138.8753,142.5801 L 138.8753,142.5801 z M 142.4941,166.151 L 142.4941,192.3604 C 145.0912,192.0782 147.7271,191.9292 150.3972,191.9292 C 158.3446,191.9292 165.9998,193.2163 173.1707,195.5854 L 173.1707,169.5296 C 170.5333,168.6143 167.8248,167.8526 165.0565,167.2562 L 165.0565,177.5796 C 160.4802,176.5946 155.7396,176.061 150.8841,176.0275 L 150.8841,165.7014 C 150.7218,165.7003 150.5597,165.6994 150.3972,165.6994 C 147.7252,165.6994 145.0894,165.8561 142.4941,166.151 L 142.4941,166.151 z M 142.4941,195.5203 L 142.4941,206.8037 C 145.0912,206.5215 147.7271,206.3724 150.3972,206.3724 C 152.8587,206.3724 155.2921,206.4958 157.6918,206.7366 L 157.6918,195.4493 C 155.2936,195.1977 152.8602,195.0686 150.3972,195.0686 C 147.7252,195.0686 145.0894,195.2253 142.4941,195.5203 L 142.4941,195.5203 z M 160.492,207.0728 C 164.8514,207.6825 169.0896,208.6804 173.1707,210.0287 L 173.1707,198.8989 C 169.1,197.486 164.8607,196.4396 160.492,195.8008 L 160.492,207.0728 L 160.492,207.0728 z M 142.4941,209.9636 L 142.4941,220.4387 C 144.3465,220.2375 146.2185,220.1036 148.1086,220.0436 L 148.1086,209.5499 C 146.2175,209.6129 144.3456,209.7531 142.4941,209.9636 z M 150.9088,220.0094 C 155.7726,220.0433 160.5247,220.5588 165.1215,221.5092 L 165.1215,211.0825 C 160.533,210.0892 155.7792,209.5493 150.9088,209.5139 L 150.9088,220.0094 L 150.9088,220.0094 z M 167.9217,222.1467 C 169.6976,222.5881 171.4482,223.0947 173.1707,223.6638 L 173.1707,213.3422 C 171.4503,212.745 169.6995,212.2135 167.9217,211.7503 L 167.9217,222.1467 z M 142.4941,223.5986 L 142.4941,235.0763 C 145.0912,234.7942 147.7271,234.6451 150.3972,234.6451 C 152.8587,234.6451 155.2921,234.7684 157.6918,235.0092 L 157.6918,223.5276 C 155.2936,223.2761 152.8602,223.1469 150.3972,223.1469 C 147.7252,223.1469 145.0894,223.3036 142.4941,223.5986 L 142.4941,223.5986 z M 160.492,235.3455 C 164.043,235.842 167.5132,236.596 170.8838,237.5873 C 171.655,236.9299 172.4197,236.265 173.1707,235.5853 L 173.1707,226.9772 C 169.1,225.5643 164.8607,224.518 160.492,223.8791 L 160.492,235.3455 z M 142.4941,238.2362 L 142.4941,248.8116 C 144.3465,248.6103 146.2185,248.4765 148.1086,248.4164 L 148.1086,237.8225 C 146.2175,237.8855 144.3456,238.0258 142.4941,238.2362 L 142.4941,238.2362 z M 150.9088,248.3823 C 152.3827,248.3925 153.8462,248.4469 155.2984,248.5444 C 158.7012,246.5999 161.9799,244.4633 165.1215,242.1521 L 165.1215,239.3552 C 160.533,238.3618 155.7792,237.8219 150.9088,237.7865 L 150.9088,248.3823 z M 142.4941,251.9715 L 142.4941,254.7108 C 144.9347,253.7394 147.3272,252.6734 149.6713,251.5235 C 147.2475,251.5493 144.8542,251.7033 142.4941,251.9715 L 142.4941,251.9715 z M 138.8753,187.5112 L 138.8753,197.8295 C 133.1354,195.7921 127.1591,194.2617 120.9998,193.2958 L 120.9998,182.809 C 127.1701,183.8102 133.1482,185.3976 138.8753,187.5112 z M 118.1996,192.8975 C 114.0298,192.3644 109.7811,192.0891 105.47,192.0891 C 100.6241,192.0891 95.8571,192.4367 91.192,193.1076 L 91.192,182.6149 C 95.8533,181.9213 100.6208,181.5616 105.47,181.5616 C 109.7835,181.5616 114.0325,181.8462 118.1996,182.3971 L 118.1996,192.8975 z M 88.3918,193.5511 C 81.9501,194.6656 75.7154,196.3981 69.7506,198.6833 L 69.7506,188.4004 C 75.7004,186.0287 81.9373,184.23 88.3918,183.0739 L 88.3918,193.5511 z M 138.8753,201.4313 L 138.8753,212.8681 C 136.9061,212.1691 134.909,211.5297 132.8863,210.9524 L 132.8863,199.4414 C 134.9108,200.0409 136.9078,200.7051 138.8753,201.4313 L 138.8753,201.4313 z M 130.0861,210.1975 C 122.3711,208.2369 114.3051,207.173 106.0045,207.1292 L 106.0045,195.4832 C 114.3163,195.5284 122.386,196.6296 130.0861,198.6583 L 130.0861,210.1975 z M 103.2043,207.1531 C 94.8924,207.3393 86.8255,208.5477 79.1226,210.6536 L 79.1226,199.1329 C 86.8097,196.9529 94.8799,195.7007 103.2043,195.5079 L 103.2043,207.1531 L 103.2043,207.1531 z M 76.3224,211.4635 C 74.0986,212.1421 71.9068,212.8958 69.7506,213.7219 L 69.7506,202.3204 C 71.9045,201.4618 74.0964,200.6784 76.3224,199.9733 L 76.3224,211.4635 L 76.3224,211.4635 z M 138.8753,216.4699 L 138.8753,226.4029 C 133.1354,224.3655 127.1591,222.8351 120.9998,221.8692 L 120.9998,211.7677 C 127.1701,212.7689 133.1482,214.3563 138.8753,216.4699 z M 118.1996,221.4709 C 114.0298,220.9378 109.7811,220.6625 105.47,220.6625 C 100.6241,220.6625 95.8571,221.01 91.192,221.681 L 91.192,211.5736 C 95.8533,210.88 100.6208,210.5203 105.47,210.5203 C 109.7835,210.5203 114.0325,210.8048 118.1996,211.3557 L 118.1996,221.4709 L 118.1996,221.4709 z M 88.3918,222.1245 C 81.9501,223.239 75.7154,224.9715 69.7506,227.2567 L 69.7506,217.3591 C 75.7004,214.9874 81.9373,213.1887 88.3918,212.0326 L 88.3918,222.1245 z M 138.8753,230.0046 L 138.8753,241.9428 C 136.9061,241.2438 134.909,240.6044 132.8863,240.0271 L 132.8863,228.0148 C 134.9108,228.6143 136.9078,229.2785 138.8753,230.0046 z M 130.0861,239.2722 C 122.3711,237.3116 114.3051,236.2477 106.0045,236.2039 L 106.0045,224.0566 C 114.3163,224.1018 122.386,225.203 130.0861,227.2317 L 130.0861,239.2722 z M 103.2043,236.2277 C 94.8924,236.414 86.8255,237.6224 79.1226,239.7283 L 79.1226,227.7062 C 86.8097,225.5262 94.8799,224.2741 103.2043,224.0813 L 103.2043,236.2277 z M 76.3224,240.5382 C 74.0986,241.2167 71.9068,241.9705 69.7506,242.7966 L 69.7506,230.8938 C 71.9045,230.0352 74.0964,229.2518 76.3224,228.5467 L 76.3224,240.5382 L 76.3224,240.5382 z M 138.8753,245.5446 L 138.8753,255.8786 C 133.1354,253.8412 127.1591,252.3108 120.9998,251.3449 L 120.9998,240.8424 C 127.1701,241.8436 133.1482,243.4309 138.8753,245.5446 z M 118.1996,250.9466 C 114.0298,250.4135 109.7811,250.1382 105.47,250.1382 C 100.6241,250.1382 95.8571,250.4858 91.192,251.1567 L 91.192,240.6483 C 95.8533,239.9547 100.6208,239.595 105.47,239.595 C 109.7835,239.595 114.0325,239.8795 118.1996,240.4304 L 118.1996,250.9466 L 118.1996,250.9466 z M 88.3918,251.6002 C 82.5279,252.6147 76.8352,254.1412 71.3617,256.1308 C 70.8229,255.9409 70.2852,255.7491 69.7506,255.5504 L 69.7506,246.4337 C 75.7004,244.0621 81.9373,242.2633 88.3918,241.1073 L 88.3918,251.6002 z M 132.8863,257.9872 L 132.8863,257.4905 C 133.1638,257.5728 133.4407,257.6559 133.7171,257.7405 C 133.4399,257.8223 133.1644,257.9078 132.8863,257.9872 z M 106.0045,261.8646 L 106.0045,253.5323 C 114.3163,253.5775 122.386,254.6787 130.0861,256.7074 L 130.0861,258.7429 C 122.3698,260.7075 114.3031,261.7836 106.0045,261.8646 z M 79.1226,258.5217 L 79.1226,257.182 C 86.8097,255.002 94.8799,253.7498 103.2043,253.557 L 103.2043,261.8545 C 94.9029,261.7086 86.8355,260.5617 79.1226,258.5217 z M 66.1168,195.5203 L 66.1168,206.8037 C 63.5198,206.5215 60.8838,206.3724 58.2137,206.3724 C 55.7522,206.3724 53.3189,206.4958 50.9191,206.7366 L 50.9191,195.4493 C 53.3174,195.1977 55.7507,195.0686 58.2137,195.0686 C 60.8857,195.0686 63.5216,195.2253 66.1168,195.5203 L 66.1168,195.5203 z M 48.1189,207.0728 C 43.7595,207.6825 39.5213,208.6804 35.4402,210.0287 L 35.4402,198.8989 C 39.5109,197.486 43.7503,196.4396 48.1189,195.8008 L 48.1189,207.0728 L 48.1189,207.0728 z M 66.1168,209.9636 L 66.1168,220.4387 C 64.2645,220.2375 62.3925,220.1036 60.5023,220.0436 L 60.5023,209.5499 C 62.3935,209.6129 64.2654,209.7531 66.1168,209.9636 z M 57.7021,220.0094 C 52.8383,220.0433 48.0862,220.5588 43.4894,221.5092 L 43.4894,211.0825 C 48.0779,210.0892 52.8317,209.5493 57.7021,209.5139 L 57.7021,220.0094 L 57.7021,220.0094 z M 40.6892,222.1467 C 38.9134,222.5881 37.1628,223.0947 35.4402,223.6638 L 35.4402,213.3422 C 37.1607,212.745 38.9114,212.2135 40.6892,211.7503 L 40.6892,222.1467 z M 66.1168,223.5986 L 66.1168,235.0763 C 63.5198,234.7942 60.8838,234.6451 58.2137,234.6451 C 55.7522,234.6451 53.3189,234.7684 50.9191,235.0092 L 50.9191,223.5276 C 53.3174,223.2761 55.7507,223.1469 58.2137,223.1469 C 60.8857,223.1469 63.5216,223.3036 66.1168,223.5986 L 66.1168,223.5986 z M 48.1189,235.3455 C 44.9487,235.7888 41.8429,236.4373 38.8146,237.2767 C 37.6666,236.2894 36.5429,235.2746 35.4402,234.238 L 35.4402,226.9772 C 39.5109,225.5643 43.7503,224.518 48.1189,223.8791 L 48.1189,235.3455 z M 66.1168,238.2362 L 66.1168,248.8116 C 64.2645,248.6103 62.3925,248.4765 60.5023,248.4164 L 60.5023,237.8225 C 62.3935,237.8855 64.2654,238.0258 66.1168,238.2362 L 66.1168,238.2362 z M 57.7021,248.3823 C 56.6742,248.3894 55.6515,248.4178 54.634,248.4677 C 50.7503,246.241 47.0306,243.76 43.4894,241.0578 L 43.4894,239.3552 C 48.0779,238.3618 52.8317,237.8219 57.7021,237.7865 L 57.7021,248.3823 z M 66.1168,251.9715 L 66.1168,254.1188 C 64.2011,253.3216 62.3165,252.4649 60.4613,251.5564 C 62.3664,251.6188 64.2519,251.7595 66.1168,251.9715 z "
   style="fill:#da251d" />
  </g>
 </g>
</svg>