<svg id="svg" xmlns="http://www.w3.org/2000/svg" xmlns:xlink="http://www.w3.org/1999/xlink" width="400" height="236.51753325272068" viewBox="0, 0, 400,236.51753325272068"><g id="svgg"><path id="path0" d="M81.824 8.265 C 81.306 9.649,77.790 27.583,76.616 34.825 C 76.154 37.675,75.833 42.032,75.884 44.754 L 75.974 49.605 70.635 65.615 C 65.734 80.312,65.296 81.924,65.296 85.258 C 65.296 90.037,63.855 96.695,61.398 103.265 C 60.304 106.191,58.988 110.762,58.473 113.422 C 55.565 128.451,54.530 132.198,50.027 143.995 L 45.507 155.833 45.179 161.955 C 44.859 167.938,44.788 168.237,42.073 175.091 C 34.584 193.996,26.670 222.975,28.995 222.975 C 29.724 222.975,34.517 218.804,41.851 211.790 C 45.583 208.221,50.045 204.318,51.766 203.118 C 53.630 201.818,55.876 199.634,57.316 197.721 C 59.047 195.420,62.621 192.148,69.891 186.209 C 75.478 181.645,81.100 176.732,82.386 175.292 C 83.672 173.851,85.093 172.672,85.545 172.672 C 86.613 172.672,101.219 187.452,118.528 206.046 C 145.359 234.869,143.946 234.463,138.111 211.669 C 136.128 203.921,133.412 192.793,132.076 186.941 C 130.323 179.266,128.916 174.454,127.029 169.678 C 125.170 164.973,124.244 161.822,123.830 158.795 C 123.510 156.452,122.524 152.140,121.639 149.214 C 120.754 146.288,119.575 141.127,119.019 137.746 C 118.462 134.365,116.274 124.766,114.155 116.415 C 110.670 102.675,107.821 90.090,104.991 75.926 C 103.987 70.903,83.658 8.495,82.720 7.557 C 82.430 7.267,82.100 7.528,81.824 8.265 M157.830 15.599 C 157.264 16.478,157.588 53.825,158.224 60.943 C 158.569 64.808,158.790 83.915,158.837 113.906 C 158.893 150.474,159.045 161.196,159.524 162.515 C 159.861 163.446,160.471 168.126,160.878 172.914 C 161.286 177.703,161.835 183.688,162.100 186.215 C 162.813 193.025,163.300 208.910,162.862 211.069 C 162.652 212.102,162.694 215.041,162.954 217.598 C 163.214 220.156,163.565 224.332,163.735 226.878 C 164.091 232.223,164.378 232.979,165.769 232.235 C 167.360 231.383,173.592 212.427,174.379 206.046 C 174.560 204.583,175.317 201.862,176.062 200.000 C 176.989 197.683,177.503 195.360,177.688 192.640 C 177.887 189.735,178.291 188.013,179.191 186.237 C 180.478 183.698,181.499 179.607,182.577 172.672 C 182.929 170.411,183.888 166.698,184.708 164.420 C 185.528 162.143,186.624 158.225,187.142 155.714 C 188.619 148.559,193.239 139.284,195.931 138.070 C 197.030 137.575,198.258 136.666,198.661 136.051 C 199.065 135.436,200.510 134.051,201.874 132.975 C 205.894 129.800,216.217 119.426,217.959 116.808 C 218.845 115.478,220.805 113.410,222.316 112.213 C 223.826 111.016,226.199 108.506,227.587 106.635 C 228.976 104.764,232.456 101.064,235.320 98.412 C 238.183 95.761,241.638 92.423,242.996 90.996 C 244.354 89.568,247.263 86.630,249.460 84.466 C 255.239 78.773,255.160 78.414,246.917 72.997 C 243.990 71.074,240.726 68.795,239.661 67.932 C 238.597 67.070,236.247 65.554,234.438 64.563 C 232.629 63.573,230.017 61.732,228.634 60.471 C 225.519 57.634,217.154 52.183,207.888 46.951 C 204.019 44.767,199.156 41.568,197.080 39.843 C 195.005 38.117,191.765 35.812,189.882 34.721 C 182.606 30.505,179.197 28.288,169.944 21.754 C 160.772 15.277,158.711 14.230,157.830 15.599 M315.599 15.506 C 301.798 16.106,290.574 16.976,284.643 17.905 C 281.451 18.406,276.663 18.947,274.002 19.109 C 269.836 19.362,248.098 21.623,247.021 21.915 C 246.175 22.145,255.829 28.482,258.525 29.466 C 260.121 30.049,263.712 31.908,266.505 33.597 C 269.299 35.286,274.282 38.099,277.579 39.847 C 280.877 41.596,283.669 43.121,283.783 43.235 C 284.921 44.372,285.811 51.392,286.112 61.597 C 286.293 67.755,286.728 74.208,287.079 75.937 C 287.810 79.545,287.644 103.693,286.831 111.971 C 286.425 116.115,286.356 123.398,286.456 151.874 C 286.465 154.401,286.441 162.890,286.402 170.738 C 286.363 178.585,286.345 186.421,286.362 188.150 C 286.417 193.643,285.456 220.709,285.126 222.975 C 284.539 227.005,287.733 227.550,300.818 225.655 C 301.679 225.530,303.745 213.334,304.713 202.660 C 305.015 199.335,305.792 194.055,306.440 190.927 C 307.685 184.917,308.004 173.657,307.203 164.006 C 306.731 158.321,307.420 144.611,308.553 137.122 C 309.077 133.664,309.640 128.549,309.804 125.756 C 309.969 122.963,310.423 118.617,310.813 116.099 C 312.546 104.913,312.915 100.025,312.367 95.490 C 311.957 92.093,312.023 86.608,312.662 71.221 C 313.116 60.287,313.355 49.855,313.194 48.040 L 312.900 44.740 315.087 42.900 C 318.231 40.255,325.361 35.869,333.600 31.511 C 346.168 24.864,357.177 18.147,357.346 17.023 C 357.653 14.972,341.432 14.383,315.599 15.506 M190.222 67.055 C 191.609 67.757,193.839 69.029,195.177 69.883 C 196.515 70.737,198.801 71.822,200.256 72.295 C 206.212 74.229,209.311 75.893,213.895 79.621 L 215.214 80.693 213.000 83.156 C 210.234 86.232,200.833 94.172,198.142 95.704 C 197.036 96.334,194.323 97.936,192.114 99.265 C 189.904 100.593,188.031 101.601,187.951 101.505 C 186.671 99.961,186.213 65.780,187.473 65.780 C 187.597 65.780,188.834 66.354,190.222 67.055 M87.931 101.636 C 89.997 105.037,91.076 108.734,95.013 125.907 C 96.227 131.203,96.110 131.336,89.840 131.794 C 87.913 131.935,85.139 132.282,83.676 132.566 C 82.213 132.849,79.819 133.010,78.356 132.925 L 75.695 132.769 75.701 128.416 C 75.706 123.571,76.217 121.495,79.926 111.245 C 82.447 104.280,85.083 98.177,85.561 98.201 C 85.721 98.209,86.788 99.755,87.931 101.636 M348.487 197.410 C 339.612 205.340,339.856 205.061,340.563 206.473 C 341.240 207.823,347.737 214.393,351.569 217.601 L 353.879 219.535 362.429 211.300 C 373.656 200.486,373.685 201.242,361.863 196.650 C 352.967 193.194,353.222 193.180,348.487 197.410 " stroke="none" fill="#000000" fill-rule="evenodd"></path></g></svg>