<?xml version="1.0" encoding="UTF-8" standalone="no"?>
<!DOCTYPE svg PUBLIC "-//W3C//DTD SVG 20010904//EN" "http://www.w3.org/TR/2001/REC-SVG-20010904/DTD/svg10.dtd">
<svg version="1.0" xmlns="http://www.w3.org/2000/svg" width="900.000000pt" height="348.000000pt" viewBox="0 0 900.000000 348.000000" preserveAspectRatio="xMidYMid meet">
<metadata>
Created by potrace 1.10, written by Peter Selinger 2001-2011
</metadata>
<g transform="translate(0.000000,348.000000) scale(0.100000,-0.100000)" fill="#d02424" stroke="none">
<path d="M636 2534 c-9 -8 -16 -21 -16 -29 0 -7 -6 -26 -14 -42 -8 -15 -22 -48 -31 -73 -10 -25 -23 -57 -31 -72 -8 -14 -14 -33 -14 -41 0 -9 -6 -28 -14 -44 -8 -15 -22 -48 -31 -73 -10 -25 -23 -57 -31 -72 -8 -14 -14 -33 -14 -41 0 -9 -6 -28 -14 -44 -8 -15 -22 -48 -32 -73 -9 -25 -23 -59 -30 -77 -8 -17 -14 -35 -14 -41 0 -5 -7 -23 -15 -38 -8 -16 -15 -36 -15 -44 0 -8 -7 -24 -15 -34 -8 -11 -15 -29 -15 -40 0 -12 -7 -30 -15 -40 -8 -11 -15 -29 -15 -40 0 -12 -7 -30 -15 -40 -8 -11 -15 -28 -15 -37 0 -10 -6 -30 -14 -46 -8 -15 -22 -47 -30 -70 -37 -100 -49 -129 -61 -153 -7 -14 -15 -43 -18 -64 -6 -37 -3 -42 42 -85 52 -50 127 -113 179 -151 l33 -25 19 25 c11 14 24 43 29 65 23 93 41 146 56 168 16 23 15 23 287 53 70 8 108 0 108 -24 0 -10 7 -27 15 -38 8 -10 15 -28 15 -40 0 -11 7 -29 15 -40 8 -10 15 -28 15 -39 0 -11 6 -29 14 -40 7 -11 16 -32 20 -47 11 -46 52 -38 117 23 161 150 179 170 179 206 0 19 -6 47 -13 61 -8 15 -21 44 -30 65 -9 20 -23 52 -30 70 -8 17 -22 52 -32 77 -10 25 -24 60 -31 78 -8 17 -21 48 -29 67 -8 19 -21 51 -29 70 -9 20 -22 51 -30 70 -9 20 -22 50 -30 68 -7 17 -28 68 -46 112 -17 44 -38 96 -47 115 -30 70 -46 106 -86 203 -24 56 -48 111 -63 140 -8 16 -14 36 -14 45 0 9 -7 26 -15 36 -8 11 -15 28 -15 38 0 17 -36 58 -51 58 -4 0 -15 -7 -23 -16z m44 -776 c0 -11 6 -34 13 -51 31 -74 48 -140 39 -149 -5 -5 -41 -10 -78 -11 l-69 -2 3 47 c2 26 9 60 17 75 8 16 15 39 15 52 0 27 37 74 51 65 5 -3 9 -14 9 -26z"/>
<path d="M2921 2517 c-11 -19 -21 -41 -21 -48 0 -8 -7 -23 -15 -33 -8 -11 -15 -28 -15 -37 0 -10 -6 -30 -14 -46 -8 -15 -22 -48 -31 -73 -10 -25 -23 -57 -31 -72 -8 -14 -14 -33 -14 -41 0 -9 -6 -28 -14 -44 -25 -48 -46 -100 -46 -115 0 -7 -7 -22 -15 -32 -8 -11 -15 -29 -15 -40 0 -12 -7 -30 -15 -40 -8 -11 -15 -28 -15 -37 0 -10 -6 -30 -14 -46 -8 -15 -22 -48 -31 -73 -22 -57 -43 -114 -62 -165 -8 -22 -21 -52 -29 -67 -8 -14 -14 -34 -14 -45 0 -10 -7 -27 -15 -37 -8 -11 -15 -29 -15 -40 0 -12 -7 -30 -15 -40 -8 -11 -15 -29 -15 -40 0 -12 -7 -30 -15 -40 -8 -11 -15 -28 -15 -38 0 -10 -7 -30 -16 -43 -26 -40 -10 -67 87 -150 51 -44 100 -87 110 -98 33 -36 88 -21 89 24 0 9 7 30 15 45 8 16 15 39 15 51 0 19 16 64 40 113 7 15 90 28 291 46 75 7 76 6 96 -22 11 -16 24 -44 28 -61 3 -18 11 -35 16 -38 5 -4 9 -15 9 -27 0 -11 6 -32 14 -46 7 -15 21 -44 30 -64 23 -56 49 -51 132 25 38 35 84 76 102 92 51 45 78 93 64 116 -7 10 -12 26 -12 35 0 9 -6 28 -13 42 -8 15 -21 43 -29 62 -8 19 -22 52 -31 73 -38 86 -45 104 -62 147 -16 43 -27 70 -59 145 -38 88 -49 112 -62 138 -8 16 -14 37 -14 47 0 9 -7 23 -15 30 -8 7 -15 19 -15 27 0 8 -7 31 -16 51 -8 21 -21 51 -28 67 -7 17 -20 47 -29 68 -38 88 -50 114 -64 147 -8 19 -21 48 -29 63 -8 16 -14 35 -14 44 0 8 -6 27 -13 41 -8 15 -25 49 -38 77 -31 61 -50 67 -78 22z m48 -760 c12 -24 21 -50 21 -58 0 -8 7 -27 15 -42 15 -30 23 -92 13 -103 -4 -3 -37 -7 -75 -7 -64 -2 -68 -1 -71 21 -2 13 4 38 12 57 9 18 16 39 16 46 0 7 7 34 16 59 9 25 18 51 20 58 6 20 11 15 33 -31z"/>
<path d="M8259 2503 c-12 -27 -28 -60 -35 -75 -8 -14 -14 -33 -14 -41 0 -9 -8 -30 -17 -49 -9 -18 -22 -45 -30 -60 -7 -14 -13 -33 -13 -41 0 -9 -6 -28 -14 -44 -8 -15 -22 -48 -32 -73 -9 -25 -23 -59 -30 -77 -8 -17 -14 -37 -14 -45 0 -7 -7 -22 -15 -32 -8 -11 -15 -29 -15 -40 0 -12 -7 -30 -15 -40 -8 -11 -15 -28 -15 -37 0 -10 -6 -30 -14 -46 -8 -15 -22 -48 -32 -73 -9 -25 -23 -59 -30 -77 -8 -17 -14 -37 -14 -45 0 -7 -7 -22 -15 -32 -8 -11 -15 -29 -15 -40 0 -12 -7 -30 -15 -40 -8 -11 -15 -29 -15 -40 0 -12 -7 -30 -15 -40 -8 -11 -15 -30 -15 -42 0 -13 -4 -25 -10 -29 -5 -3 -14 -20 -19 -38 -5 -18 -19 -57 -31 -87 -38 -98 -46 -77 61 -172 35 -31 82 -73 104 -92 46 -42 97 -47 103 -11 2 11 10 34 18 52 8 17 14 40 14 51 0 11 7 33 15 48 8 16 15 39 15 51 0 31 12 36 135 50 237 28 242 28 264 2 11 -13 20 -33 21 -45 0 -11 7 -29 15 -40 8 -10 15 -27 15 -37 0 -11 6 -31 14 -45 8 -15 22 -46 31 -69 27 -66 45 -59 184 67 103 94 121 115 121 141 0 16 -4 37 -9 47 -8 17 -29 66 -54 125 -7 17 -21 49 -30 70 -38 86 -45 104 -62 147 -16 43 -27 70 -59 145 -9 20 -22 51 -30 70 -9 20 -22 50 -29 68 -24 56 -48 111 -63 140 -8 16 -14 35 -14 44 0 8 -6 27 -13 41 -13 26 -32 67 -60 135 -24 56 -48 111 -63 140 -8 16 -14 37 -14 47 0 9 -7 23 -15 30 -8 7 -15 22 -15 34 0 27 -46 96 -65 96 -7 0 -23 -21 -36 -47z m54 -744 c9 -17 17 -38 17 -47 0 -9 7 -29 14 -44 8 -15 16 -46 18 -69 3 -41 2 -43 -30 -51 -19 -5 -53 -8 -75 -6 -35 2 -43 7 -45 26 -2 13 1 29 7 35 5 7 15 31 20 52 6 22 16 61 23 88 7 26 17 47 23 47 5 0 18 -14 28 -31z"/>
<path d="M4160 2494 c-19 -9 -42 -20 -50 -25 -8 -5 -22 -12 -30 -15 -8 -3 -22 -10 -30 -15 -8 -5 -22 -12 -30 -16 -30 -13 -166 -122 -200 -159 -81 -89 -113 -136 -163 -239 -81 -165 -111 -283 -110 -440 0 -89 18 -214 32 -228 6 -6 11 -20 11 -32 0 -12 7 -30 15 -41 8 -10 15 -24 15 -31 0 -21 61 -106 113 -158 52 -52 59 -57 134 -94 26 -13 57 -28 68 -34 56 -30 278 -45 350 -24 l50 14 0 185 c0 221 -1 223 -93 215 -181 -15 -310 77 -326 233 -11 116 13 211 78 298 57 78 101 109 273 190 40 18 45 31 32 90 -5 26 -14 87 -19 135 -5 48 -12 93 -16 98 -3 6 -9 31 -12 57 -6 41 -11 47 -32 50 -14 1 -41 -5 -60 -14z"/>
<path d="M4836 2495 c-15 -8 -36 -15 -46 -15 -10 0 -23 -7 -30 -15 -7 -8 -18 -15 -24 -15 -30 0 -172 -141 -205 -202 -12 -24 -26 -50 -30 -58 -20 -35 -55 -123 -81 -204 -45 -142 -45 -483 0 -616 40 -115 86 -202 145 -274 35 -43 128 -116 148 -116 7 0 18 -5 24 -11 29 -29 201 -47 283 -29 141 30 267 114 338 225 34 51 92 167 92 181 0 7 7 25 15 40 8 16 15 38 15 49 0 11 7 38 15 60 8 22 14 65 15 95 0 30 5 82 10 115 13 78 -2 234 -39 395 -4 20 -27 76 -51 125 -33 70 -58 105 -112 158 -37 37 -74 67 -82 67 -7 0 -19 7 -26 15 -7 8 -22 15 -34 15 -11 0 -30 7 -40 15 -28 21 -259 21 -300 0z m234 -395 c63 -68 72 -107 77 -340 4 -206 0 -238 -49 -347 -67 -147 -222 -162 -290 -28 -51 98 -53 112 -53 305 0 196 8 244 59 348 62 127 171 154 256 62z"/>
<path d="M1371 2478 c-17 -46 -22 -120 -32 -473 -5 -198 -14 -425 -19 -505 -5 -80 -9 -226 -9 -326 -1 -226 -8 -216 148 -222 166 -7 151 -43 151 353 0 183 4 336 8 339 11 7 45 -27 112 -109 30 -38 82 -100 115 -139 34 -39 79 -93 100 -121 22 -27 42 -52 45 -55 5 -5 97 -110 162 -185 93 -106 103 -113 128 -90 19 17 20 32 20 234 0 119 5 270 10 336 6 66 15 266 21 445 6 179 13 363 16 410 4 66 2 89 -9 97 -22 19 -243 29 -273 13 l-25 -13 -2 -336 c-2 -228 -6 -336 -14 -336 -12 0 -52 45 -227 255 -44 52 -83 97 -86 100 -4 3 -62 70 -130 150 -121 142 -177 200 -193 200 -5 0 -12 -10 -17 -22z"/>
<path d="M5680 2482 c-12 -13 -16 -68 -22 -287 -3 -148 -11 -346 -17 -440 -5 -93 -11 -304 -12 -468 -3 -260 -1 -299 13 -313 12 -12 45 -17 138 -21 112 -6 124 -4 137 12 10 15 13 87 13 347 0 222 3 328 10 328 13 0 34 -23 110 -115 142 -173 252 -305 280 -333 8 -8 25 -28 36 -44 12 -16 53 -63 90 -105 113 -125 119 -129 143 -92 10 17 15 109 21 373 5 193 14 446 20 561 6 116 9 296 8 400 l-3 190 -60 7 c-116 13 -203 12 -219 -1 -14 -12 -16 -55 -16 -347 0 -231 -3 -334 -11 -334 -12 0 -20 7 -83 80 -26 30 -69 79 -94 109 -26 29 -56 63 -67 75 -11 12 -38 44 -60 71 -22 27 -47 56 -55 65 -8 8 -58 65 -110 125 -166 193 -162 189 -190 157z"/>
<path d="M6853 2472 c-10 -6 -13 -177 -14 -751 -3 -860 -14 -777 104 -767 38 4 77 11 87 16 10 6 36 10 57 10 21 0 51 7 67 15 15 8 35 15 43 15 8 0 27 6 41 13 15 8 42 21 60 30 19 9 37 17 42 17 5 0 37 19 72 42 128 85 236 207 299 338 12 25 28 57 35 72 8 14 14 37 14 50 0 13 5 29 11 35 29 29 43 310 22 434 -10 60 -17 81 -45 129 -4 8 -12 25 -18 37 -16 38 -106 133 -149 157 -80 45 -104 56 -119 56 -10 0 -23 5 -29 11 -6 6 -39 15 -74 20 -35 5 -86 13 -114 18 -61 12 -375 14 -392 3z m412 -370 c98 -35 148 -79 166 -147 5 -22 14 -53 19 -69 14 -42 12 -92 -6 -171 -32 -132 -97 -233 -196 -302 -68 -47 -68 -47 -68 334 0 314 4 374 28 373 4 -1 30 -9 57 -18z"/>
</g>
</svg>